<svg xmlns="http://www.w3.org/2000/svg" viewBox="0 0 240 260" role="img" aria-labelledby="title desc">
  <title id="title">Karantin</title>
  <desc id="desc">Karantin, a calm illustrated black cat with bright yellow eyes and a slightly judgmental expression.</desc>
  <ellipse cx="122" cy="238" rx="78" ry="13" fill="#09111b" opacity=".18"/>
  <path d="M77 84 65 28l45 37M163 84l14-56-47 38" fill="#15171d" stroke="#08090c" stroke-width="7" stroke-linejoin="round"/>
  <path d="M71 91c0-40 22-64 51-64s51 24 51 64c0 35-20 59-51 59S71 126 71 91Z" fill="#17191f"/>
  <path d="M90 71 76 43l28 21M150 70l16-27-30 21" fill="#353844" opacity=".8"/>
  <ellipse cx="98" cy="94" rx="10" ry="12" fill="#f4c542"/>
  <ellipse cx="146" cy="94" rx="10" ry="12" fill="#f4c542"/>
  <ellipse cx="98" cy="95" rx="3" ry="9" fill="#111318"/>
  <ellipse cx="146" cy="95" rx="3" ry="9" fill="#111318"/>
  <circle cx="95" cy="90" r="2" fill="#fff8c6" opacity=".9"/>
  <circle cx="143" cy="90" r="2" fill="#fff8c6" opacity=".9"/>
  <path d="M115 111h14l-7 7Z" fill="#9b6671"/>
  <path d="M122 118v7m0 0c-6 8-15 6-18 1m18-1c6 8 15 6 18 1" fill="none" stroke="#747986" stroke-width="3" stroke-linecap="round"/>
  <path d="M81 113 36 104m47 20-47 5m127-16 45-9m-47 20 47 5" stroke="#9297a3" stroke-width="3" stroke-linecap="round" opacity=".75"/>
  <path d="M73 184c0-35 21-57 49-57s49 22 49 57v47H73Z" fill="#17191f"/>
  <path d="M89 150c18-12 48-12 66 0" fill="none" stroke="#292c35" stroke-width="5" stroke-linecap="round" opacity=".85"/>
  <path d="M170 183c30-4 49 10 50 29 1 15-9 26-23 24-12-2-18-12-14-21 4-8 13-11 20-7" fill="none" stroke="#17191f" stroke-width="17" stroke-linecap="round"/>
  <path d="M87 219v20m69-20v20" stroke="#0a0b0e" stroke-width="13" stroke-linecap="round"/>
</svg>
